<?xml version="1.0" encoding="UTF-8"?>
<svg id="Capa_1" data-name="Capa 1" xmlns="http://www.w3.org/2000/svg" viewBox="0 0 1920 1920">
  <defs>
    <style>
      .cls-1 {
        fill: #d59a59;
      }

      .cls-2 {
        fill: #cb8a52;
      }

      .cls-3 {
        fill: #c6834e;
      }

      .cls-4 {
        fill: #9f291a;
      }

      .cls-5 {
        fill: #a75334;
      }

      .cls-6 {
        fill: #cc8d53;
      }

      .cls-7 {
        fill: #a95636;
      }

      .cls-8 {
        fill: #f1b55b;
      }

      .cls-9 {
        fill: #b2663f;
      }

      .cls-10 {
        fill: #d19557;
      }

      .cls-11 {
        fill: #dfac64;
      }
    </style>
  </defs>
  <rect class="cls-5" x="160" y="0" width="160" height="160"/>
  <rect class="cls-5" x="480" y="0" width="160" height="160"/>
  <rect class="cls-5" x="800" y="0" width="160" height="160"/>
  <rect class="cls-5" x="1120" y="0" width="160" height="160"/>
  <rect class="cls-5" x="1440" y="0" width="160" height="160"/>
  <rect class="cls-5" x="1760" y="0" width="160" height="160"/>
  <rect class="cls-3" y="160" width="160" height="160"/>
  <rect class="cls-3" x="320" y="160" width="160" height="160"/>
  <rect class="cls-3" x="640" y="160" width="160" height="160"/>
  <rect class="cls-3" x="960" y="160" width="160" height="160"/>
  <rect class="cls-3" x="1280" y="160" width="160" height="160"/>
  <rect class="cls-3" x="1600" y="160" width="160" height="160"/>
  <rect class="cls-2" x="160" y="320" width="160" height="160"/>
  <rect class="cls-2" x="480" y="320" width="160" height="160"/>
  <rect class="cls-2" x="800" y="320" width="160" height="160"/>
  <rect class="cls-2" x="1120" y="320" width="160" height="160"/>
  <rect class="cls-2" x="1440" y="320" width="160" height="160"/>
  <rect class="cls-2" x="1760" y="320" width="160" height="160"/>
  <rect class="cls-7" y="480" width="160" height="160"/>
  <rect class="cls-7" x="320" y="480" width="160" height="160"/>
  <rect class="cls-7" x="640" y="480" width="160" height="160"/>
  <rect class="cls-7" x="960" y="480" width="160" height="160"/>
  <rect class="cls-7" x="1280" y="480" width="160" height="160"/>
  <rect class="cls-7" x="1600" y="480" width="160" height="160"/>
  <rect class="cls-8" x="160" y="640" width="160" height="160"/>
  <rect class="cls-8" x="480" y="640" width="160" height="160"/>
  <rect class="cls-8" x="800" y="640" width="160" height="160"/>
  <rect class="cls-8" x="1120" y="640" width="160" height="160"/>
  <rect class="cls-8" x="1440" y="640" width="160" height="160"/>
  <rect class="cls-8" x="1760" y="640" width="160" height="160"/>
  <rect class="cls-9" y="800" width="160" height="160"/>
  <rect class="cls-9" x="320" y="800" width="160" height="160"/>
  <rect class="cls-9" x="640" y="800" width="160" height="160"/>
  <rect class="cls-9" x="960" y="800" width="160" height="160"/>
  <rect class="cls-9" x="1280" y="800" width="160" height="160"/>
  <rect class="cls-9" x="1600" y="800" width="160" height="160"/>
  <rect class="cls-4" x="160" y="960" width="160" height="160"/>
  <rect class="cls-4" x="480" y="960" width="160" height="160"/>
  <rect class="cls-4" x="800" y="960" width="160" height="160"/>
  <rect class="cls-4" x="1120" y="960" width="160" height="160"/>
  <rect class="cls-4" x="1440" y="960" width="160" height="160"/>
  <rect class="cls-4" x="1760" y="960" width="160" height="160"/>
  <rect class="cls-1" y="1120" width="160" height="160"/>
  <rect class="cls-1" x="320" y="1120" width="160" height="160"/>
  <rect class="cls-1" x="640" y="1120" width="160" height="160"/>
  <rect class="cls-1" x="960" y="1120" width="160" height="160"/>
  <rect class="cls-1" x="1280" y="1120" width="160" height="160"/>
  <rect class="cls-1" x="1600" y="1120" width="160" height="160"/>
  <rect class="cls-7" x="160" y="1280" width="160" height="160"/>
  <rect class="cls-7" x="480" y="1280" width="160" height="160"/>
  <rect class="cls-7" x="800" y="1280" width="160" height="160"/>
  <rect class="cls-7" x="1120" y="1280" width="160" height="160"/>
  <rect class="cls-7" x="1440" y="1280" width="160" height="160"/>
  <rect class="cls-7" x="1760" y="1280" width="160" height="160"/>
  <rect class="cls-11" y="1440" width="160" height="160"/>
  <rect class="cls-11" x="320" y="1440" width="160" height="160"/>
  <rect class="cls-11" x="640" y="1440" width="160" height="160"/>
  <rect class="cls-11" x="960" y="1440" width="160" height="160"/>
  <rect class="cls-11" x="1280" y="1440" width="160" height="160"/>
  <rect class="cls-11" x="1600" y="1440" width="160" height="160"/>
  <rect class="cls-10" x="160" y="1600" width="160" height="160"/>
  <rect class="cls-10" x="480" y="1600" width="160" height="160"/>
  <rect class="cls-10" x="800" y="1600" width="160" height="160"/>
  <rect class="cls-10" x="1120" y="1600" width="160" height="160"/>
  <rect class="cls-10" x="1440" y="1600" width="160" height="160"/>
  <rect class="cls-10" x="1760" y="1600" width="160" height="160"/>
  <rect class="cls-6" y="1760" width="160" height="160"/>
  <rect class="cls-6" x="320" y="1760" width="160" height="160"/>
  <rect class="cls-6" x="640" y="1760" width="160" height="160"/>
  <rect class="cls-6" x="960" y="1760" width="160" height="160"/>
  <rect class="cls-6" x="1280" y="1760" width="160" height="160"/>
  <rect class="cls-6" x="1600" y="1760" width="160" height="160"/>
</svg>