<?xml version="1.0" encoding="UTF-8"?>
<svg id="Capa_1" data-name="Capa 1" xmlns="http://www.w3.org/2000/svg" viewBox="0 0 1920 1920">
  <defs>
    <style>
      .cls-1 {
        fill: #2d4b31;
      }

      .cls-2 {
        fill: #29482d;
      }

      .cls-3 {
        fill: #405b44;
      }

      .cls-4 {
        fill: #5f7563;
      }

      .cls-5 {
        fill: #2f4c33;
      }

      .cls-6 {
        fill: #a6afa9;
      }

      .cls-7 {
        fill: #829085;
      }

      .cls-8 {
        fill: #98a39a;
      }

      .cls-9 {
        fill: #d3d3d3;
      }

      .cls-10 {
        fill: #224126;
      }

      .cls-11 {
        fill: #19361c;
      }

      .cls-12 {
        fill: #556e5b;
      }
    </style>
  </defs>
  <rect class="cls-1" y="0" width="160" height="160"/>
  <rect class="cls-6" x="320" y="0" width="160" height="160"/>
  <rect class="cls-7" x="640" y="0" width="160" height="160"/>
  <rect class="cls-9" x="960" y="0" width="160" height="160"/>
  <rect class="cls-12" x="1280" y="0" width="160" height="160"/>
  <rect class="cls-2" x="1600" y="0" width="160" height="160"/>
  <rect class="cls-4" x="160" y="160" width="160" height="160"/>
  <rect class="cls-10" x="480" y="160" width="160" height="160"/>
  <rect class="cls-3" x="800" y="160" width="160" height="160"/>
  <rect class="cls-11" x="1120" y="160" width="160" height="160"/>
  <rect class="cls-8" x="1440" y="160" width="160" height="160"/>
  <rect class="cls-5" x="1760" y="160" width="160" height="160"/>
  <rect class="cls-1" y="320" width="160" height="160"/>
  <rect class="cls-6" x="320" y="320" width="160" height="160"/>
  <rect class="cls-7" x="640" y="320" width="160" height="160"/>
  <rect class="cls-9" x="960" y="320" width="160" height="160"/>
  <rect class="cls-12" x="1280" y="320" width="160" height="160"/>
  <rect class="cls-2" x="1600" y="320" width="160" height="160"/>
  <rect class="cls-4" x="160" y="480" width="160" height="160"/>
  <rect class="cls-10" x="480" y="480" width="160" height="160"/>
  <rect class="cls-3" x="800" y="480" width="160" height="160"/>
  <rect class="cls-11" x="1120" y="480" width="160" height="160"/>
  <rect class="cls-8" x="1440" y="480" width="160" height="160"/>
  <rect class="cls-5" x="1760" y="480" width="160" height="160"/>
  <rect class="cls-1" y="640" width="160" height="160"/>
  <rect class="cls-6" x="320" y="640" width="160" height="160"/>
  <rect class="cls-7" x="640" y="640" width="160" height="160"/>
  <rect class="cls-9" x="960" y="640" width="160" height="160"/>
  <rect class="cls-12" x="1280" y="640" width="160" height="160"/>
  <rect class="cls-2" x="1600" y="640" width="160" height="160"/>
  <rect class="cls-4" x="160" y="800" width="160" height="160"/>
  <rect class="cls-10" x="480" y="800" width="160" height="160"/>
  <rect class="cls-3" x="800" y="800" width="160" height="160"/>
  <rect class="cls-11" x="1120" y="800" width="160" height="160"/>
  <rect class="cls-8" x="1440" y="800" width="160" height="160"/>
  <rect class="cls-5" x="1760" y="800" width="160" height="160"/>
  <rect class="cls-1" y="960" width="160" height="160"/>
  <rect class="cls-6" x="320" y="960" width="160" height="160"/>
  <rect class="cls-7" x="640" y="960" width="160" height="160"/>
  <rect class="cls-9" x="960" y="960" width="160" height="160"/>
  <rect class="cls-12" x="1280" y="960" width="160" height="160"/>
  <rect class="cls-2" x="1600" y="960" width="160" height="160"/>
  <rect class="cls-4" x="160" y="1120" width="160" height="160"/>
  <rect class="cls-10" x="480" y="1120" width="160" height="160"/>
  <rect class="cls-3" x="800" y="1120" width="160" height="160"/>
  <rect class="cls-11" x="1120" y="1120" width="160" height="160"/>
  <rect class="cls-8" x="1440" y="1120" width="160" height="160"/>
  <rect class="cls-5" x="1760" y="1120" width="160" height="160"/>
  <rect class="cls-1" y="1280" width="160" height="160"/>
  <rect class="cls-6" x="320" y="1280" width="160" height="160"/>
  <rect class="cls-7" x="640" y="1280" width="160" height="160"/>
  <rect class="cls-9" x="960" y="1280" width="160" height="160"/>
  <rect class="cls-12" x="1280" y="1280" width="160" height="160"/>
  <rect class="cls-2" x="1600" y="1280" width="160" height="160"/>
  <rect class="cls-4" x="160" y="1440" width="160" height="160"/>
  <rect class="cls-10" x="480" y="1440" width="160" height="160"/>
  <rect class="cls-3" x="800" y="1440" width="160" height="160"/>
  <rect class="cls-11" x="1120" y="1440" width="160" height="160"/>
  <rect class="cls-8" x="1440" y="1440" width="160" height="160"/>
  <rect class="cls-5" x="1760" y="1440" width="160" height="160"/>
  <rect class="cls-1" y="1600" width="160" height="160"/>
  <rect class="cls-6" x="320" y="1600" width="160" height="160"/>
  <rect class="cls-7" x="640" y="1600" width="160" height="160"/>
  <rect class="cls-9" x="960" y="1600" width="160" height="160"/>
  <rect class="cls-12" x="1280" y="1600" width="160" height="160"/>
  <rect class="cls-2" x="1600" y="1600" width="160" height="160"/>
  <rect class="cls-4" x="160" y="1760" width="160" height="160"/>
  <rect class="cls-10" x="480" y="1760" width="160" height="160"/>
  <rect class="cls-3" x="800" y="1760" width="160" height="160"/>
  <rect class="cls-11" x="1120" y="1760" width="160" height="160"/>
  <rect class="cls-8" x="1440" y="1760" width="160" height="160"/>
  <rect class="cls-5" x="1760" y="1760" width="160" height="160"/>
</svg>