<?xml version="1.0" encoding="UTF-8"?>
<svg id="Capa_1" xmlns="http://www.w3.org/2000/svg" version="1.1" viewBox="0 0 8198.87 1921.62">
  <!-- Generator: Adobe Illustrator 29.8.2, SVG Export Plug-In . SVG Version: 2.1.1 Build 3)  -->
  <defs>
    <style>
      .st0 {
        fill: #fff;
      }
    </style>
  </defs>
  <path class="st0" d="M0,1665.4h128.11v-128.11h512.43v-128.11h128.11v-384.32h-128.11v-512.43h128.11v-128.11h128.11v-128.11h128.11v-128.11h768.65V0h256.22v128.11h128.11v128.11h-131.18v-128.11h-250.07v128.11h125.03v128.11h128.11v256.22h-128.11v128.11h-125.03v128.11h-128.11v128.11h381.25v128.11h128.11v512.43h-128.11v128.11h-128.11v128.11h-515.51v-128.11h-125.03v-387.4h128.11v-125.03h128.11v-128.11h128.11v-128.11h-128.11v-128.11h128.11v-128.11h128.11V256.22h-256.22v128.11h-125.03v128.11h-128.11v131.18h-131.18v381.25h-128.11v512.43h128.11v256.22h-128.11v128.11h-256.22v-128.11h-253.14v128.11H128.11v-128.11H0v-128.11ZM512.43,1793.51v-128.11H131.18v128.11h381.25ZM896.75,1793.51v-381.25h-128.11v125.03h-125.03v128.11h128.11v128.11h125.03ZM1024.86,1018.71v-378.17h128.11v-128.11h128.11v-128.11h128.11v-128.11h-256.22v128.11h-128.11v128.11h-128.11v506.28h128.11ZM1793.51,1793.51v-128.11h128.11v-512.43h-253.14v128.11h125.03v256.22h-128.11v-256.22h-125.03v128.11h-131.18v384.32h384.32Z"/>
  <path class="st0" d="M2305.93,1537.29h128.11v-256.22h128.11v-128.11h-131.18v-128.11h-125.03v128.11h-128.11v-384.32h384.32v128.11h-128.11v128.11h384.32v256.22h-128.11v256.22h-128.11v256.22h253.14v-128.11h131.18v-256.22h125.03v-128.11h131.18v128.11h-128.11v259.29h-128.11v125.03h-128.11v128.11h-384.32v-128.11h-128.11v-256.22Z"/>
  <path class="st0" d="M3330.79,1537.29h128.11v-256.22h128.11v-256.22h-256.22v256.22h-128.11v-256.22h121.96v-128.11h390.47v128.11h128.11v256.22h-128.11v384.32h-128.11v128.11h256.22v-256.22h128.11v-256.22h128.11v-384.32h256.22v384.32h-128.11v384.32h-128.11v128.11h256.22v-128.11h128.11v-256.22h128.11v-128.11h128.11v131.18h-128.11v256.22h-128.11v128.11h-128.11v125.03h-384.32v-125.03h-128.11v125.03h-384.32v-128.11h-128.11v-256.22Z"/>
  <polygon class="st0" points="8198.87 1281.08 8198.87 1409.18 8070.77 1409.18 8070.77 1668.47 7942.65 1668.47 7942.65 1796.58 7814.54 1796.58 7814.54 1921.62 7555.25 1921.62 7555.25 1793.51 7302.12 1793.51 7302.12 1921.62 6917.79 1921.62 6917.79 1793.51 6789.68 1793.51 6789.68 1412.26 6661.58 1412.26 6661.58 1668.47 6533.48 1668.47 6533.48 1796.58 6405.36 1796.58 6405.36 1921.62 6021.04 1921.62 6021.04 1793.51 5892.93 1793.51 5892.93 1537.29 6021.04 1537.29 6021.04 1152.97 6149.15 1152.97 6149.15 1024.86 5892.93 1024.86 5892.93 1281.08 5764.83 1281.08 5764.83 1537.29 5636.73 1537.29 5636.73 1921.62 5380.51 1921.62 5380.51 1537.29 5508.61 1537.29 5508.61 1152.97 5636.73 1152.97 5636.73 1024.86 5380.51 1024.86 5380.51 1281.08 5252.4 1281.08 5252.4 1537.29 5124.29 1537.29 5124.29 1921.62 4741 1921.62 4741 1793.51 4868.08 1793.51 4868.08 1537.29 4996.18 1537.29 4996.18 1152.97 5124.29 1152.97 5124.29 1024.86 4868.08 1024.86 4868.08 1281.08 4739.98 1281.08 4739.98 1024.86 4865.01 1024.86 4865.01 896.75 5252.4 896.75 5252.4 1021.79 5380.51 1021.79 5380.51 896.75 5764.83 896.75 5764.83 1021.79 5892.93 1021.79 5892.93 896.75 6277.27 896.75 6277.27 1024.86 6405.36 1024.86 6405.36 1281.08 6277.27 1281.08 6277.27 1537.29 6149.15 1537.29 6149.15 1793.51 6405.36 1793.51 6405.36 1665.4 6533.48 1665.4 6533.48 1409.18 6661.58 1409.18 6661.58 1281.08 6917.79 1281.08 6917.79 1152.97 7045.9 1152.97 7045.9 1024.86 7170.93 1024.86 7170.93 896.75 7430.23 896.75 7430.23 1152.97 7302.12 1152.97 7302.12 1024.86 7174.01 1024.86 7174.01 1409.18 7045.9 1409.18 7045.9 1793.51 7174.01 1793.51 7174.01 1665.4 7302.12 1665.4 7302.12 1537.29 7430.23 1537.29 7430.23 1281.08 7558.33 1281.08 7558.33 1024.86 7686.43 1024.86 7686.43 896.75 7942.65 896.75 7942.65 1024.86 7814.54 1024.86 7814.54 1281.08 7686.43 1281.08 7686.43 1537.29 7558.33 1537.29 7558.33 1793.51 7814.54 1793.51 7814.54 1665.4 7942.65 1665.4 7942.65 1409.18 8067.68 1409.18 8067.68 1281.08 8198.87 1281.08"/>
</svg>